# xmcd CD database file
#
# Track frame offsets:
#	150
#	15063
#	26899
#	41150
#	54219
#	68305
#	80904
#	94252
#	106818
#	121491
#	136372
#	149923
#	163027
#	176322
#	187513
#	201564
#	214714
#
# Disc length: 3028 seconds
#
# Revision: 0
# Processed by: cddbd v1.5.1PL2 Copyright (c) Steve Scherf et al.
# Submitted via: CDex 1.51
#
DISCID=e80bd211
DTITLE=Ella Fitzgerald - best of
DYEAR=1900
DGENRE=Jazz
TTITLE0=I didn't mean a word I said
TTITLE1=Petootie Pie
TTITLE2=For sentimental reasons
TTITLE3=A four leaf clover in your pocket
TTITLE4=Time alone will tell
TTITLE5=Make love to me
TTITLE6=Once too often
TTITLE7=Can't help lovin' dat man
TTITLE8=And her tears flowed like wine
TTITLE9=He's my guy
TTITLE10=My man
TTITLE11=You won't be satisfied
TTITLE12=I got it bad
TTITLE13=Flying home
TTITLE14=A kiss goodnight
TTITLE15=I'm just a lucky so and so
TTITLE16=Cry you out of my heart
EXTD=
EXTT0=
EXTT1=
EXTT2=
EXTT3=
EXTT4=
EXTT5=
EXTT6=
EXTT7=
EXTT8=
EXTT9=
EXTT10=
EXTT11=
EXTT12=
EXTT13=
EXTT14=
EXTT15=
EXTT16=
PLAYORDER=
